<?xml version="1.0" encoding="iso-8859-1"?>
<!-- Uploaded to: SVG Repo, www.svgrepo.com, Generator: SVG Repo Mixer Tools -->
<svg fill="#000000" height="800px" width="800px" version="1.1" id="Layer_1" xmlns="http://www.w3.org/2000/svg" xmlns:xlink="http://www.w3.org/1999/xlink" 
	 viewBox="0 0 472.615 472.615" xml:space="preserve">
<g>
	<g>
		<path d="M89.156,215.407v-85.601H70.141v85.601c0,40.109,14.753,77.252,39.055,106.277l13.454-13.454
			C101.777,282.719,89.156,250.334,89.156,215.407z"/>
	</g>
</g>
<g>
	<g>
		<path d="M383.459,210.189c0,43.52-17.995,85.062-49.378,113.975c-30.158,27.791-69.23,41.338-109.936,37.903
			c-27.494-2.262-52.703-12.345-73.795-27.749l34.952-34.949c14.871,9.095,32.292,14.408,51.006,14.408h0.001
			c54.324,0,98.363-44.039,98.363-98.362v-65.417L471.223,13.445L457.778,0L334.671,123.107v-0.009L169.922,287.845
			c0.002,0.002,0.004,0.002,0.004,0.002l-34.335,34.339c-0.002-0.003-0.003-0.005-0.005-0.005l-13.404,13.404
			c0.001,0.002,0.003,0.002,0.005,0.004L1.393,456.385l13.445,13.445L136.81,347.858c24.298,18.431,53.656,30.523,85.775,33.169
			c1.412,0.114,2.807,0.094,4.215,0.172v72.401h-86.565v19.016h192.147v-19.016h-86.565v-72.443
			c37.535-2.149,72.825-16.908,101.153-43.009c35.275-32.498,55.507-79.138,55.507-127.959v-80.382h-19.016V210.189z"/>
	</g>
</g>
<g>
	<g>
		<path d="M236.308,6.723L236.308,6.723c-54.325,0-98.365,44.039-98.365,98.362v5.214h53.554v19.016h-53.554v26.324h53.554v19.016
			h-53.554v40.76c0,21.841,7.206,41.951,19.249,58.272L334.245,96.633C329.949,46.273,287.779,6.723,236.308,6.723z"/>
	</g>
</g>
</svg>